<?xml version="1.0" standalone="no"?>
<!DOCTYPE svg PUBLIC "-//W3C//DTD SVG 20010904//EN"
 "http://www.w3.org/TR/2001/REC-SVG-20010904/DTD/svg10.dtd">
<svg version="1.0" xmlns="http://www.w3.org/2000/svg"
 width="48.000000pt" height="45.000000pt" viewBox="0 0 48.000000 45.000000"
 preserveAspectRatio="xMidYMid meet">

<g transform="translate(0.000000,45.000000) scale(0.100000,-0.100000)"
fill="#000000" stroke="none">
<path d="M208 406 c-104 -28 -178 -109 -186 -202 -4 -53 -4 -55 39 -98 50 -50
95 -66 184 -66 120 0 212 70 201 153 -7 65 -23 65 -33 1 -9 -62 -57 -104 -135
-118 -24 -4 -38 -3 -38 4 0 5 5 10 11 10 22 0 101 63 125 100 87 132 -11 258
-168 216z m130 -56 c12 -12 22 -28 22 -36 0 -12 -4 -13 -22 -3 -26 14 -140 18
-181 6 -39 -11 -27 7 21 33 51 27 131 27 160 0z m-13 -74 c19 -8 35 -19 35
-24 0 -26 -63 -92 -111 -116 -94 -47 -179 -24 -179 48 0 80 152 135 255 92z"/>
</g>
</svg>
